<svg width="23" height="23" viewBox="0 0 27 27" fill="none" xmlns="http://www.w3.org/2000/svg">
<g id="Group 67">
<path id="Rectangle 56" d="M20.3746 2.50087C21.0153 1.86024 21.3356 1.53992 21.6929 1.3919C22.1693 1.19455 22.7047 1.19455 23.1811 1.3919C23.5385 1.53992 23.8588 1.86023 24.4994 2.50087V2.50087C25.14 3.14151 25.4604 3.46183 25.6084 3.81916C25.8057 4.2956 25.8057 4.83093 25.6084 5.30737C25.4604 5.66471 25.14 5.98502 24.4994 6.62566L10.7054 20.4196C10.4632 20.6618 10.3421 20.7829 10.2025 20.8806C10.0629 20.9783 9.90768 21.0506 9.59717 21.1952L2.50053 24.4997L5.80507 17.4031C5.94966 17.0926 6.02195 16.9373 6.11964 16.7978C6.21733 16.6582 6.33843 16.5371 6.58063 16.2949L20.3746 2.50087Z" stroke="white" stroke-width="1.94444" stroke-linecap="round" stroke-linejoin="round"/>
<path id="Vector 21" d="M17.7231 5.15234L21.8479 9.27713" stroke="white" stroke-width="1.94444"/>
</g>
</svg>
